<?xml version="1.0" encoding="UTF-8" standalone="no"?><!DOCTYPE svg PUBLIC "-//W3C//DTD SVG 1.1//EN" "http://www.w3.org/Graphics/SVG/1.1/DTD/svg11.dtd"><svg width="100%" height="100%" viewBox="0 0 256 256" version="1.1" xmlns="http://www.w3.org/2000/svg" xmlns:xlink="http://www.w3.org/1999/xlink" xml:space="preserve" xmlns:serif="http://www.serif.com/" style="fill-rule:evenodd;clip-rule:evenodd;stroke-linejoin:round;stroke-miterlimit:2;"><g transform="matrix(1,0,0,1,0,-2438.34)"><g id="Starburst" transform="matrix(0.442286,0,0,0.429726,0,1390.95)"><rect x="0" y="2437.33" width="578.812" height="595.728" style="fill:none;"/><g transform="matrix(1.15722,0,0,1.19441,-1843.48,630.812)"><path d="M1842.23,1550.76L1842.23,1550.76L1882.13,1516.38L1909.71,1562.04L1959.24,1542.23L1970.5,1594.36L2023.77,1591.69L2017.5,1644.66L2068.75,1659.45L2045.62,1707.51L2089.28,1738.13L2051.8,1776.08L2083.17,1819.22L2035.39,1842.93L2051.04,1893.93L1998.15,1900.85L1996.42,1954.16L1944.13,1943.53L1925.17,1993.38L1879.19,1966.36L1845.07,2007.35L1842.23,2004.05L1842.23,2004.06L1810.35,1966.87L1764.76,1994.56L1745.07,1944.99L1692.96,1956.38L1690.42,1903.1L1637.44,1896.95L1652.36,1845.74L1604.24,1822.73L1634.97,1779.13L1596.93,1741.73L1640.15,1710.48L1616.32,1662.77L1667.35,1647.23L1660.29,1594.36L1713.6,1596.24L1724.1,1543.95L1773.91,1563.03L1800.81,1516.98L1841.72,1551.2L1842.23,1550.76Z" style="fill:url(#_Radial1);fill-rule:nonzero;"/></g></g></g><defs><radialGradient id="_Radial1" cx="0" cy="0" r="1" gradientUnits="userSpaceOnUse" gradientTransform="matrix(246.178,-3.82638e-13,4.45881e-13,286.867,1843.1,1761.87)"><stop offset="0" style="stop-color:rgb(0,166,192);stop-opacity:1"/><stop offset="1" style="stop-color:rgb(0,105,151);stop-opacity:1"/></radialGradient></defs></svg>